<svg xmlns="http://www.w3.org/2000/svg" width="512" height="512" fill-rule="evenodd" clip-rule="evenodd" image-rendering="optimizeQuality" shape-rendering="geometricPrecision" text-rendering="geometricPrecision" viewBox="0 0 512 512" id="slack">
  <defs>
    <linearGradient id="c" x1="-3807.09" x2="-3400.73" y1="1908.92" y2="2216.48" gradientUnits="userSpaceOnUse">
      <stop offset="0" stop-color="#1e1b1e"></stop>
      <stop offset="1" stop-color="#474747"></stop>
    </linearGradient>
    <linearGradient id="a" x1="-4589.57" x2="-4183.21" y1="1994.12" y2="2301.68" gradientUnits="userSpaceOnUse">
      <stop offset="0" stop-color="#67c4ce"></stop>
      <stop offset="1" stop-color="#e62a58"></stop>
    </linearGradient>
    <linearGradient id="b" x1="67.83" x2="474.19" y1="389.98" y2="82.42" gradientUnits="userSpaceOnUse">
      <stop offset="0" stop-color="#e01e5a"></stop>
      <stop offset="1" stop-color="#dfa22f"></stop>
    </linearGradient>
  </defs>
  <path fill="url(#a)" d="M-4401.4 1911.7c141.39,0 256.01,114.61 256.01,256 0,141.38 -114.62,256 -256.01,256 -141.38,0 -256,-114.62 -256,-256 0,-141.39 114.62,-256 256,-256z"></path>
  <path fill="#fff" d="M-4343.9 2017.71c0.02,4.58 1.36,70.82 70.88,74.95 0,19.11 0.02,32.96 0.02,51.19 -5.27,0.3 -45.77,-2.64 -70.98,-25.12l-0.07 99.64c0.95,69.15 -49.94,111.24 -116.46,96.7 -114.71,-34.31 -76.6,-204.45 38.58,-186.24 0,54.93 0.04,-0.02 0.04,54.93 -47.59,-7 -63.5,32.58 -50.86,60.92 11.51,25.8 58.88,31.4 75.41,-5 1.87,-7.13 2.81,-15.25 2.81,-24.37l0 -197.86 50.63 0.26z"></path>
  <path fill="url(#b)" d="M256 512c-141.39,0 -256,-114.61 -256,-256 0,-141.39 114.61,-256 256,-256 141.39,0 256,114.61 256,256 0,141.39 -114.61,256 -256,256z"></path>
  <path fill="#fff" fill-rule="nonzero" d="M215.15 103.07c-16.83,0 -30.59,13.75 -30.59,30.58 0,16.84 13.76,30.59 30.59,30.59 10.19,0 20.39,0 30.59,0l0 -30.59c0,-16.83 -13.55,-30.58 -30.59,-30.58zm-111.88 193.78c0,16.83 13.76,30.59 30.59,30.59 16.83,0 30.59,-13.76 30.59,-30.59l0 -30.59 -30.59 0c-17.04,0 -30.59,13.76 -30.59,30.59zm81.5 0l0 81.7c0,16.83 13.75,30.59 30.58,30.59 16.84,0 30.59,-13.76 30.59,-30.59l0 -81.7c0,-16.83 -13.75,-30.59 -30.59,-30.59 0,0 0,0 0,0 -17.03,0 -30.58,13.76 -30.58,30.59zm111.88 112.29c16.83,0 30.58,-13.76 30.58,-30.59 0,-16.83 -13.75,-30.59 -30.58,-30.59l-30.59 0 0 30.59c0,16.83 13.75,30.59 30.59,30.59zm81.49 -81.7c16.83,0 30.59,-13.76 30.59,-30.59 0,-16.83 -13.76,-30.59 -30.59,-30.59l-81.49 0c-16.84,0 -30.59,13.76 -30.59,30.59 0,16.83 13.75,30.59 30.59,30.59 27.16,0 54.33,0 81.49,0zm30.59 -112.29c0,-16.83 -13.76,-30.59 -30.59,-30.59 -16.83,0 -30.59,13.76 -30.59,30.59l0 30.59 30.59 0c16.83,0.2 30.59,-13.55 30.59,-30.59zm-81.5 0l0 -81.7c0,-16.83 -13.75,-30.59 -30.58,-30.59 -16.84,0 -30.59,13.76 -30.59,30.59l0 81.7c0,16.83 13.75,30.59 30.59,30.59 17.03,0.2 30.58,-13.55 30.58,-30.59zm-112.08 -30.59l-81.29 0c-16.83,0 -30.59,13.76 -30.59,30.59 0,16.83 13.76,30.59 30.59,30.59l81.49 0c16.84,0 30.59,-13.76 30.59,-30.59 -0.2,-16.83 -13.75,-30.59 -30.79,-30.59z"></path>
  <g>
    <path fill="url(#c)" d="M-3618.92 1826.5c141.39,0 256.01,114.61 256.01,256 0,141.39 -114.62,256 -256.01,256 -141.38,0 -256,-114.61 -256,-256 0,-141.39 114.62,-256 256,-256z"></path>
    <path fill="#fff" d="M-3694.11 1985.89c53.36,0 96.61,43.25 96.61,96.61 0,53.36 -43.25,96.62 -96.61,96.62 -53.36,0 -96.62,-43.26 -96.62,-96.62 0,-53.36 43.26,-96.61 96.62,-96.61zm229.97 15.25c9.41,0 17.03,36.43 17.03,81.36 0,44.94 -7.62,81.36 -17.03,81.36 -9.4,0 -17.03,-36.42 -17.03,-81.36 0,-44.93 7.63,-81.36 17.03,-81.36zm-75.38 -7.63c27,0 48.89,39.85 48.89,88.99 0,49.15 -21.89,88.99 -48.89,88.99 -27,0 -48.89,-39.84 -48.89,-88.99 0,-49.14 21.89,-88.99 48.89,-88.99z"></path>
  </g>
</svg>
